<svg xmlns="http://www.w3.org/2000/svg" viewBox="0 0 1024 1024" role="img" aria-hidden="true">
  <rect width="1024" height="1024" fill="#fffc00" rx="188"/>
  <path fill="#fff" stroke="#000" stroke-linejoin="round" stroke-width="42" d="M513 156c93 0 159 67 159 176 0 40-8 105-3 135 4 26 45 18 74 7 31-12 60 19 36 47-29 35-70 56-119 69 28 79 88 137 184 170 34 12 34 58 0 70-52 19-98 26-146 29-17 45-49 66-91 66-37 0-66-15-93-31-29-18-49-29-80-29s-51 11-80 29c-27 16-56 31-93 31-42 0-74-21-91-66-48-3-94-10-146-29-34-12-34-58 0-70 96-33 156-91 184-170-49-13-90-34-119-69-24-28 5-59 36-47 29 11 70 19 74-7 5-30-3-95-3-135 0-109 66-176 159-176Z"/>
</svg>
