<svg xmlns="http://www.w3.org/2000/svg" viewBox="0 0 24 24" role="img" aria-hidden="true">
  <path fill="#fffc00" d="M12 2.6c2.8 0 4.6 2 4.6 5.2v2.1c0 .4.3.6.7.5l1.1-.3c.6-.1 1 .5.6 1-.6.8-1.4 1.3-2.3 1.6.4 1.1 1.4 2 2.8 2.5.5.2.5.9 0 1.1-.9.4-1.7.5-2.5.6-.3.8-.9 1.1-1.7 1.1-.7 0-1.3-.3-1.9-.6-.5-.3-.9-.5-1.4-.5s-.9.2-1.4.5c-.6.3-1.2.6-1.9.6-.8 0-1.4-.4-1.7-1.1-.8-.1-1.6-.2-2.5-.6-.5-.2-.5-.9 0-1.1 1.4-.5 2.4-1.4 2.8-2.5-.9-.3-1.7-.8-2.3-1.6-.4-.5 0-1.1.6-1l1.1.3c.4.1.7-.1.7-.5V7.8c0-3.2 1.8-5.2 4.6-5.2Z"/>
  <path fill="none" stroke="#111" stroke-linejoin="round" stroke-width="1.3" d="M12 2.6c2.8 0 4.6 2 4.6 5.2v2.1c0 .4.3.6.7.5l1.1-.3c.6-.1 1 .5.6 1-.6.8-1.4 1.3-2.3 1.6.4 1.1 1.4 2 2.8 2.5.5.2.5.9 0 1.1-.9.4-1.7.5-2.5.6-.3.8-.9 1.1-1.7 1.1-.7 0-1.3-.3-1.9-.6-.5-.3-.9-.5-1.4-.5s-.9.2-1.4.5c-.6.3-1.2.6-1.9.6-.8 0-1.4-.4-1.7-1.1-.8-.1-1.6-.2-2.5-.6-.5-.2-.5-.9 0-1.1 1.4-.5 2.4-1.4 2.8-2.5-.9-.3-1.7-.8-2.3-1.6-.4-.5 0-1.1.6-1l1.1.3c.4.1.7-.1.7-.5V7.8c0-3.2 1.8-5.2 4.6-5.2Z"/>
</svg>
